<?xml version="1.0" encoding="UTF-8" standalone="no"?>
<svg
   xmlns:dc="http://purl.org/dc/elements/1.1/"
   xmlns:cc="http://creativecommons.org/ns#"
   xmlns:rdf="http://www.w3.org/1999/02/22-rdf-syntax-ns#"
   xmlns:svg="http://www.w3.org/2000/svg"
   xmlns="http://www.w3.org/2000/svg"
   version="1.1"
   id="svg49340"
   viewBox="0 0 300 116.72478"
   height="116.72478"
   width="300">
  <defs
     id="defs49342" />
  <metadata
     id="metadata49345">
    <rdf:RDF>
      <cc:Work
         rdf:about="">
        <dc:format>image/svg+xml</dc:format>
        <dc:type
           rdf:resource="http://purl.org/dc/dcmitype/StillImage" />
        <dc:title></dc:title>
      </cc:Work>
    </rdf:RDF>
  </metadata>
  <g
     transform="translate(-537.3366,-507.84823)"
     id="layer1">
    <g
       transform="matrix(3.1671804,0,0,-3.1671804,729.32075,554.16425)"
       id="g49320">
      <path
         id="path49322"
         style="fill:#e31837;fill-opacity:1;fill-rule:nonzero;stroke:none"
         d="m 0,0 0,-14.213 c 0,-3.186 -2.423,-3.687 -4.939,-3.769 -2.495,-0.169 -4.927,0.25 -4.927,3.344 l 0,14.638 2.68,0 0,-13.877 c 0,-1.429 1.256,-1.508 2.247,-1.508 1.1,0.079 2.351,0.169 2.351,1.423 L -2.588,0 0,0 Z m 0,0 -2.588,0 0,6.274 c 0,1.341 -1.251,1.423 -2.351,1.513 -0.991,0.078 -2.247,-0.09 -2.247,-1.426 l 0,-6.361 -2.68,0 0,7.035 c 0,3.087 2.432,3.513 4.927,3.332 C -2.423,10.282 0,9.705 0,6.69 L 0,0 Z m -12.629,0 0,-6.523 c 0,-2.678 -2.263,-3.26 -3.845,-3.26 l -3.434,0 0,-8.199 c -0.58,0 -2.096,0.082 -2.679,0.082 l 0,17.9 2.679,0 0,-7.107 3.519,-0.081 c 0.576,0 1.081,0.163 1.081,1.171 l 0,6.017 2.679,0 z m -9.958,0 0,10.204 c 1.766,0.163 4.609,0.344 7.115,0.344 1.257,0 2.843,-0.677 2.843,-2.933 l 0,-7.615 -2.679,0 0,7.282 c 0,0.505 -0.336,0.583 -0.583,0.583 -0.247,0 -3.767,-0.078 -4.017,-0.078 l 0,-7.787 -2.679,0 z m 44.421,-12.714 c -0.917,-0.423 -1.598,-0.67 -2.593,-1.081 l 0,17.139 c -1.254,0.514 -2.514,0.925 -3.683,1.168 l 0,2.77 c 4.678,-1.258 7.107,-2.434 9.88,-4.105 l 0,-3.177 c -1.011,0.752 -2.272,1.507 -3.604,2.185 l 0,-14.899 z m -16.31,-4.18 c -1.003,-0.167 -1.583,-0.251 -2.688,-0.418 l 0,26.935 C 3.941,9.539 4.599,9.451 5.602,9.288 l 4.512,-16.395 0,15.724 c 1.097,-0.251 1.598,-0.332 2.601,-0.583 l 0,-23.674 c -0.924,-0.251 -1.747,-0.324 -2.766,-0.587 l -4.425,15.635 0,-16.302 z m -34.638,26.599 0,-23.253 c 0,-3.513 -2.42,-3.597 -4.927,-3.184 -2.6,0.505 -4.932,0.841 -4.932,4.018 l 0,20.748 2.585,0.583 0,-21.074 c 0,-1.251 1.179,-1.338 2.347,-1.588 1.078,-0.168 2.263,-0.427 2.263,0.995 l 0,22.423 2.664,0.332 z M -41.821,0 l 0,-11.451 c 0,-1.842 -1.602,-3.103 -3.011,-2.594 -1.418,0.497 -4.673,1.674 -6.28,2.754 l 0,11.291 2.688,0 0,-9.783 c 0.821,-0.336 1.918,-0.834 2.67,-1.17 0.922,-0.338 1.259,0.073 1.259,0.756 l 0,10.197 2.674,0 z m -2.674,0 0,2.596 c 0,0.581 -0.419,1.002 -1.086,0.748 -0.496,-0.167 -1.935,-0.748 -2.843,-1.159 l 0,-2.185 -2.688,0 0,3.682 c 1.77,1.081 4.606,2.252 5.86,2.592 1.415,0.498 3.431,-0.172 3.431,-2.416 l 0,-3.858 -2.674,0 z m 31.287,12.467 c -26.175,0 -45.174,-6.365 -45.174,-16.233 0,-9.942 18.999,-16.312 45.174,-16.312 l 0,-1.837 c -27.281,0 -47.093,7.11 -47.093,18.149 0,10.961 19.812,18.074 47.093,18.074 l 0,-1.841 z m 0,-32.545 c 26.166,0 45.164,6.37 45.164,16.312 0,9.868 -18.998,16.233 -45.164,16.233 l 0,1.841 c 27.262,0 46.997,-7.113 46.997,-18.074 0,-11.039 -19.735,-18.149 -46.997,-18.149" />
    </g>
    <g
       transform="matrix(3.1671804,0,0,-3.1671804,819.98446,613.35885)"
       id="g49324" />
  </g>
</svg>
