<?xml version="1.0" encoding="utf-8"?>
<!-- Generator: Adobe Illustrator 16.0.0, SVG Export Plug-In . SVG Version: 6.00 Build 0)  -->
<!DOCTYPE svg PUBLIC "-//W3C//DTD SVG 1.1//EN" "http://www.w3.org/Graphics/SVG/1.1/DTD/svg11.dtd">
<svg version="1.1" id="Capa_1" xmlns="http://www.w3.org/2000/svg" xmlns:xlink="http://www.w3.org/1999/xlink" x="0px" y="0px"
	 width="215.434px" height="215.434px" viewBox="0 0 215.434 215.434" enable-background="new 0 0 215.434 215.434"
	 xml:space="preserve">
<g>
	<circle fill="#54C147" cx="107.717" cy="107.717" r="106.299"/>
	<path fill="#FFFFFF" d="M107.717,128.071c-11.241,0-20.351-9.11-20.351-20.35c0-11.24,9.109-20.354,20.351-20.354
		c11.237,0,20.347,9.113,20.347,20.354C128.063,118.959,118.955,128.071,107.717,128.071z M171.57,114.678v-14.532l-2.054-0.671
		l-15.558-5.079l-4.149-10.021l7.977-16.885l-10.278-10.277l-1.925,0.978l-14.593,7.411l-10.018-4.151l-6.302-17.587h-14.531
		l-0.669,2.057l-5.077,15.558l-10.019,4.15l-16.891-7.979L57.208,67.924l0.979,1.924l7.409,14.599L61.448,94.46l-17.589,6.297
		v14.532l2.055,0.673l15.558,5.078l4.151,10.021l-7.979,16.887l10.27,10.274l1.929-0.976l14.592-7.41l10.021,4.154l6.298,17.582
		h14.533l0.67-2.052l5.08-15.558l10.021-4.152l16.887,7.979l10.28-10.28l-0.978-1.926l-7.411-14.587l4.151-10.025L171.57,114.678z"
		/>
</g>
</svg>
